<?xml version="1.0" encoding="UTF-8"?><svg xmlns="http://www.w3.org/2000/svg" xmlns:xlink="http://www.w3.org/1999/xlink" stroke-dasharray="none" shape-rendering="auto" font-family="'Dialog'" width="908" text-rendering="auto" fill-opacity="1" contentScriptType="text/ecmascript" color-interpolation="auto" color-rendering="auto" preserveAspectRatio="xMidYMid meet" font-size="12" fill="black" stroke="black" image-rendering="auto" stroke-miterlimit="10" zoomAndPan="magnify" version="1.0" stroke-linecap="square" stroke-linejoin="miter" contentStyleType="text/css" font-style="normal" height="436" stroke-width="1" stroke-dashoffset="0" font-weight="normal" stroke-opacity="1">
<!--Generated by the Batik Graphics2D SVG Generator-->
<defs id="genericDefs"/>
<g>
<defs id="defs1">
<clipPath clipPathUnits="userSpaceOnUse" id="clipPath1">
<path d="M47 58 L877 58 L877 396 L47 396 L47 58 Z"/>
</clipPath>
<clipPath clipPathUnits="userSpaceOnUse" id="clipPath2">
<path d="M-1 -1 L909 -1 L909 437 L-1 437 L-1 -1 Z"/>
</clipPath>
<clipPath clipPathUnits="userSpaceOnUse" id="clipPath3">
<path d="M279 20 L630 20 L630 46 L279 46 L279 20 Z"/>
</clipPath>
<clipPath clipPathUnits="userSpaceOnUse" id="clipPath4">
<path d="M47 394 L877 394 L877 437 L47 437 L47 394 Z"/>
</clipPath>
</defs>
<g font-size="15" fill="white" text-rendering="geometricPrecision" font-family="'Ubuntu'" stroke-linejoin="round" stroke="white" stroke-width="0" stroke-miterlimit="0">
<rect x="48" y="59" clip-path="url(#clipPath1)" width="828" height="336" stroke="none"/>
</g>
<g font-size="15" stroke-linecap="butt" fill="rgb(204,204,204)" text-rendering="geometricPrecision" font-family="'Ubuntu'" stroke-dasharray="3,3" stroke="rgb(204,204,204)">
<line clip-path="url(#clipPath1)" fill="none" x1="48" x2="876" y1="395" y2="395"/>
<line clip-path="url(#clipPath1)" fill="none" x1="48" x2="876" y1="352" y2="352"/>
<line clip-path="url(#clipPath1)" fill="none" x1="48" x2="876" y1="310" y2="310"/>
<line clip-path="url(#clipPath1)" fill="none" x1="48" x2="876" y1="268" y2="268"/>
<line clip-path="url(#clipPath1)" fill="none" x1="48" x2="876" y1="226" y2="226"/>
<line clip-path="url(#clipPath1)" fill="none" x1="48" x2="876" y1="184" y2="184"/>
<line clip-path="url(#clipPath1)" fill="none" x1="48" x2="876" y1="142" y2="142"/>
<line clip-path="url(#clipPath1)" fill="none" x1="48" x2="876" y1="100" y2="100"/>
<rect x="692" y="348" clip-path="url(#clipPath1)" fill="green" width="92" height="46" stroke="none"/>
<rect x="692" y="348" clip-path="url(#clipPath1)" fill="none" width="92" stroke-dasharray="none" height="46"/>
<rect x="554" y="290" clip-path="url(#clipPath1)" fill="rgb(255,165,0)" width="92" stroke-dasharray="none" height="104" stroke="none"/>
<rect x="554" y="290" clip-path="url(#clipPath1)" fill="none" width="92" stroke-dasharray="none" height="104"/>
<rect x="416" y="285" clip-path="url(#clipPath1)" fill="rgb(0,100,0)" width="92" stroke-dasharray="none" height="109" stroke="none"/>
<rect x="416" y="285" clip-path="url(#clipPath1)" fill="none" width="92" stroke-dasharray="none" height="109"/>
<rect x="278" y="237" clip-path="url(#clipPath1)" fill="rgb(238,0,0)" width="92" stroke-dasharray="none" height="157" stroke="none"/>
<rect x="278" y="237" clip-path="url(#clipPath1)" fill="none" width="92" stroke-dasharray="none" height="157"/>
<rect x="140" y="89" clip-path="url(#clipPath1)" fill="rgb(0,0,139)" width="92" stroke-dasharray="none" height="305" stroke="none"/>
<rect x="140" y="89" clip-path="url(#clipPath1)" fill="none" width="92" stroke-dasharray="none" height="305"/>
<rect x="48" y="59" clip-path="url(#clipPath2)" fill="none" width="828" stroke-dasharray="none" height="336" stroke="black"/>
<line clip-path="url(#clipPath2)" fill="none" x1="49" x2="875" y1="395" y2="395" stroke-dasharray="none"/>
</g>
<g text-rendering="geometricPrecision" font-size="13" stroke-linecap="butt">
<text xml:space="preserve" x="388" y="13" clip-path="url(#clipPath2)" stroke="none">SINR versus Distance</text>
<rect x="280" y="21" clip-path="url(#clipPath3)" fill="white" width="348" height="23" stroke="none"/>
<rect x="290" y="29" clip-path="url(#clipPath3)" fill="rgb(0,0,139)" width="7" height="7" stroke="none"/>
<text font-size="11" x="302" y="37" clip-path="url(#clipPath3)" stroke="none" xml:space="preserve">$0=10m</text>
<rect x="356" y="29" clip-path="url(#clipPath3)" fill="rgb(238,0,0)" width="7" height="7" stroke="none"/>
<text font-size="11" x="368" y="37" clip-path="url(#clipPath3)" stroke="none" xml:space="preserve">$0=50m</text>
<rect x="422" y="29" clip-path="url(#clipPath3)" fill="rgb(0,100,0)" width="7" height="7" stroke="none"/>
<text font-size="11" x="434" y="37" clip-path="url(#clipPath3)" stroke="none" xml:space="preserve">$0=100m</text>
<rect x="494" y="29" clip-path="url(#clipPath3)" fill="rgb(255,165,0)" width="7" height="7" stroke="none"/>
<text font-size="11" x="506" y="37" clip-path="url(#clipPath3)" stroke="none" xml:space="preserve">$0=150m</text>
<rect x="566" y="29" clip-path="url(#clipPath3)" fill="green" width="7" height="7" stroke="none"/>
<text font-size="11" x="578" y="37" clip-path="url(#clipPath3)" stroke="none" xml:space="preserve">$0=250m</text>
<line clip-path="url(#clipPath2)" fill="none" x1="46" x2="46" y1="59" y2="395"/>
<line clip-path="url(#clipPath2)" fill="none" x1="878" x2="878" y1="59" y2="395"/>
<line clip-path="url(#clipPath2)" fill="none" x1="42" x2="46" y1="395" y2="395"/>
<line clip-path="url(#clipPath2)" fill="none" x1="882" x2="878" y1="395" y2="395"/>
<text font-size="11" x="36" y="400" clip-path="url(#clipPath2)" stroke="none" xml:space="preserve">0</text>
<text font-size="11" x="885" y="400" clip-path="url(#clipPath2)" stroke="none" xml:space="preserve">0</text>
<line clip-path="url(#clipPath2)" fill="none" x1="44" x2="46" y1="352" y2="352"/>
<line clip-path="url(#clipPath2)" fill="none" x1="880" x2="878" y1="352" y2="352"/>
<line clip-path="url(#clipPath2)" fill="none" x1="42" x2="46" y1="310" y2="310"/>
<line clip-path="url(#clipPath2)" fill="none" x1="882" x2="878" y1="310" y2="310"/>
<text font-size="11" x="31" y="315" clip-path="url(#clipPath2)" stroke="none" xml:space="preserve">20</text>
<text font-size="11" x="885" y="315" clip-path="url(#clipPath2)" stroke="none" xml:space="preserve">20</text>
<line clip-path="url(#clipPath2)" fill="none" x1="44" x2="46" y1="268" y2="268"/>
<line clip-path="url(#clipPath2)" fill="none" x1="880" x2="878" y1="268" y2="268"/>
<line clip-path="url(#clipPath2)" fill="none" x1="42" x2="46" y1="226" y2="226"/>
<line clip-path="url(#clipPath2)" fill="none" x1="882" x2="878" y1="226" y2="226"/>
<text font-size="11" x="31" y="231" clip-path="url(#clipPath2)" stroke="none" xml:space="preserve">40</text>
<text font-size="11" x="885" y="231" clip-path="url(#clipPath2)" stroke="none" xml:space="preserve">40</text>
<line clip-path="url(#clipPath2)" fill="none" x1="44" x2="46" y1="184" y2="184"/>
<line clip-path="url(#clipPath2)" fill="none" x1="880" x2="878" y1="184" y2="184"/>
<line clip-path="url(#clipPath2)" fill="none" x1="42" x2="46" y1="142" y2="142"/>
<line clip-path="url(#clipPath2)" fill="none" x1="882" x2="878" y1="142" y2="142"/>
<text font-size="11" x="31" y="147" clip-path="url(#clipPath2)" stroke="none" xml:space="preserve">60</text>
<text font-size="11" x="885" y="147" clip-path="url(#clipPath2)" stroke="none" xml:space="preserve">60</text>
<line clip-path="url(#clipPath2)" fill="none" x1="44" x2="46" y1="100" y2="100"/>
<line clip-path="url(#clipPath2)" fill="none" x1="880" x2="878" y1="100" y2="100"/>
<line clip-path="url(#clipPath4)" fill="none" x1="140" x2="784" y1="399" y2="399"/>
<text xml:space="preserve" x="435" y="432" clip-path="url(#clipPath4)" stroke="none">Distance </text>
</g>
</g>
</svg>
